# WaveFront *.obj file (generated by Autodesk ATF)

mtllib c91a3972-1e9c-423b-9b83-ebb0745d965b.mtl

g Body1

v -175.000000 0.000000 -175.000000
v 150.000000 0.000000 -175.000000
v 150.000000 -25.000000 -175.000000
v -175.000000 -25.000000 -175.000000
v -175.000000 0.000000 150.000000
v -175.000000 -25.000000 150.000000
v 150.000000 0.000000 150.000000
v 150.000000 -25.000000 150.000000
vt 0.000000 0.000000 0.000000
vt 32.500000 0.000000 0.000000
vt 0.000000 2.500000 0.000000
vt 32.500000 2.500000 0.000000
vt -0.000000 0.000000 0.000000
vt 32.500000 0.000000 0.000000
vt 0.000000 2.500000 0.000000
vt 32.500000 2.500000 0.000000
vt 0.000000 0.000000 0.000000
vt 32.500000 0.000000 0.000000
vt 0.000000 2.500000 0.000000
vt 32.500000 2.500000 0.000000
vt 0.000000 0.000000 0.000000
vt 32.500000 0.000000 0.000000
vt 0.000000 2.500000 0.000000
vt 32.500000 2.500000 0.000000
vt 16.250000 16.250000 0.000000
vt -16.250000 16.250000 0.000000
vt 16.250000 -16.250000 0.000000
vt -16.250000 -16.250000 0.000000
vt 16.250000 16.250000 0.000000
vt -16.250000 16.250000 0.000000
vt 16.250000 -16.250000 0.000000
vt -16.250000 -16.250000 0.000000
vn 0.000000 0.000000 -0.100000
vn 0.000000 0.000000 -0.100000
vn 0.000000 0.000000 -0.100000
vn 0.000000 0.000000 -0.100000
vn -0.100000 0.000000 0.000000
vn -0.100000 0.000000 0.000000
vn -0.100000 0.000000 0.000000
vn -0.100000 0.000000 0.000000
vn 0.000000 0.000000 0.100000
vn 0.000000 0.000000 0.100000
vn 0.000000 0.000000 0.100000
vn 0.000000 0.000000 0.100000
vn 0.100000 0.000000 0.000000
vn 0.100000 0.000000 0.000000
vn 0.100000 0.000000 0.000000
vn 0.100000 0.000000 0.000000
vn 0.000000 0.100000 0.000000
vn 0.000000 0.100000 0.000000
vn 0.000000 0.100000 0.000000
vn 0.000000 0.100000 0.000000
vn 0.000000 -0.100000 0.000000
vn 0.000000 -0.100000 0.000000
vn 0.000000 -0.100000 0.000000
vn 0.000000 -0.100000 0.000000
usemtl Powder_Coat_(Dark_Grey)
f 1/1/1 2/2/2 4/3/3
f 4/3/3 2/2/2 3/4/4
f 5/5/5 1/6/6 6/7/7
f 6/7/7 1/6/6 4/8/8
f 7/9/9 5/10/10 8/11/11
f 8/11/11 5/10/10 6/12/12
f 2/13/13 7/14/14 3/15/15
f 3/15/15 7/14/14 8/16/16
f 2/17/17 1/18/18 7/19/19
f 7/19/19 1/18/18 5/20/20
f 3/21/21 8/22/22 4/23/23
f 4/23/23 8/22/22 6/24/24
# 8 vertices
# 24 texture params
# 24 normals
# 12 facets

# 1 groups
