# WaveFront *.obj file (generated by Autodesk ATF)

mtllib 9e4e52bb-8752-46c6-84fe-a5eafa3c1907.mtl

g Body8

v 600.000000 15.000000 0.000000
v 900.000000 15.000000 0.000000
v 900.000000 -25.000000 0.000000
v 600.000000 -25.000000 0.000000
v 900.000000 -25.000000 15.000000
v 600.000000 -25.000000 15.000000
v 900.000000 15.000000 -250.000000
v 600.000000 15.000000 -250.000000
v 600.000000 -25.000000 -250.000000
v 900.000000 -25.000000 -250.000000
v 900.000000 -25.000000 -265.000000
v 600.000000 -25.000000 -265.000000
v 600.000000 25.000000 -265.000000
v 900.000000 25.000000 -265.000000
v 900.000000 25.000000 15.000000
v 600.000000 25.000000 15.000000
vt 0.000000 0.000000 0.000000
vt 30.000000 0.000000 0.000000
vt -0.000000 4.000000 0.000000
vt 30.000000 4.000000 0.000000
vt 0.750000 15.000000 0.000000
vt -0.750000 15.000000 0.000000
vt 0.750000 -15.000000 0.000000
vt -0.750000 -15.000000 0.000000
vt 0.000000 0.000000 0.000000
vt 30.000000 -0.000000 0.000000
vt 0.000000 4.000000 0.000000
vt 30.000000 4.000000 0.000000
vt -0.750000 -15.000000 0.000000
vt 0.750000 -15.000000 0.000000
vt -0.750000 15.000000 0.000000
vt 0.750000 15.000000 0.000000
vt 15.000000 12.500000 0.000000
vt -15.000000 12.500000 0.000000
vt 15.000000 -12.500000 0.000000
vt -15.000000 -12.500000 0.000000
vt 30.000000 1.000000 0.000000
vt -0.000000 1.000000 0.000000
vt 30.000000 -4.000000 0.000000
vt 0.000000 -4.000000 0.000000
vt 26.500000 0.000000 0.000000
vt 0.000000 1.000000 0.000000
vt 1.500000 0.000000 0.000000
vt 0.000000 -4.000000 0.000000
vt 1.500000 -4.000000 0.000000
vt 26.500000 -4.000000 0.000000
vt 28.000000 -4.000000 0.000000
vt 28.000000 1.000000 0.000000
vt 30.000000 1.000000 0.000000
vt 0.000000 1.000000 0.000000
vt 30.000000 -4.000000 0.000000
vt -0.000000 -4.000000 0.000000
vt 26.500000 0.000000 0.000000
vt 0.000000 1.000000 0.000000
vt 1.500000 0.000000 0.000000
vt 0.000000 -4.000000 0.000000
vt 1.500000 -4.000000 0.000000
vt 26.500000 -4.000000 0.000000
vt 28.000000 -4.000000 0.000000
vt 28.000000 1.000000 0.000000
vt 14.000000 15.000000 0.000000
vt -14.000000 15.000000 0.000000
vt 14.000000 -15.000000 0.000000
vt -14.000000 -15.000000 0.000000
vn 0.000000 0.000000 -0.100000
vn 0.000000 0.000000 -0.100000
vn 0.000000 0.000000 -0.100000
vn 0.000000 0.000000 -0.100000
vn 0.000000 -0.100000 0.000000
vn 0.000000 -0.100000 0.000000
vn 0.000000 -0.100000 0.000000
vn 0.000000 -0.100000 0.000000
vn 0.000000 0.000000 0.100000
vn 0.000000 0.000000 0.100000
vn 0.000000 0.000000 0.100000
vn 0.000000 0.000000 0.100000
vn 0.000000 -0.100000 0.000000
vn 0.000000 -0.100000 0.000000
vn 0.000000 -0.100000 0.000000
vn 0.000000 -0.100000 0.000000
vn 0.000000 -0.100000 0.000000
vn 0.000000 -0.100000 0.000000
vn 0.000000 -0.100000 0.000000
vn 0.000000 -0.100000 0.000000
vn 0.000000 0.000000 -0.100000
vn 0.000000 0.000000 -0.100000
vn 0.000000 0.000000 -0.100000
vn 0.000000 0.000000 -0.100000
vn 0.100000 0.000000 0.000000
vn 0.100000 0.000000 0.000000
vn 0.100000 0.000000 0.000000
vn 0.100000 0.000000 0.000000
vn 0.100000 0.000000 0.000000
vn 0.100000 0.000000 0.000000
vn 0.100000 0.000000 0.000000
vn 0.100000 0.000000 0.000000
vn 0.000000 0.000000 0.100000
vn 0.000000 0.000000 0.100000
vn 0.000000 0.000000 0.100000
vn 0.000000 0.000000 0.100000
vn -0.100000 -0.000000 0.000000
vn -0.100000 -0.000000 0.000000
vn -0.100000 -0.000000 0.000000
vn -0.100000 -0.000000 0.000000
vn -0.100000 -0.000000 0.000000
vn -0.100000 -0.000000 0.000000
vn -0.100000 -0.000000 0.000000
vn -0.100000 -0.000000 0.000000
vn -0.000000 0.100000 0.000000
vn -0.000000 0.100000 0.000000
vn -0.000000 0.100000 0.000000
vn -0.000000 0.100000 0.000000
usemtl Powder_Coat_-_Rough_(Green)
f 1/1/1 2/2/2 4/3/3
f 4/3/3 2/2/2 3/4/4
f 6/5/5 4/6/6 5/7/7
f 5/7/7 4/6/6 3/8/8
f 7/9/9 8/10/10 10/11/11
f 10/11/11 8/10/10 9/12/12
f 11/13/13 10/14/14 12/15/15
f 12/15/15 10/14/14 9/16/16
f 2/17/17 1/18/18 7/19/19
f 7/19/19 1/18/18 8/20/20
f 13/21/21 14/22/22 12/23/23
f 12/23/23 14/22/22 11/24/24
f 7/25/25 15/26/26 2/27/27
f 2/27/27 15/26/26 5/28/28
f 2/27/27 5/28/28 3/29/29
f 10/30/30 11/31/31 7/25/25
f 7/25/25 11/31/31 14/32/32
f 7/25/25 14/32/32 15/26/26
f 15/33/33 16/34/34 5/35/35
f 5/35/35 16/34/34 6/36/36
f 1/37/37 13/38/38 8/39/39
f 8/39/39 13/38/38 12/40/40
f 8/39/39 12/40/40 9/41/41
f 4/42/42 6/43/43 1/37/37
f 1/37/37 6/43/43 16/44/44
f 1/37/37 16/44/44 13/38/38
f 13/45/45 16/46/46 14/47/47
f 14/47/47 16/46/46 15/48/48
# 16 vertices
# 48 texture params
# 48 normals
# 28 facets

# 1 groups
