# WaveFront *.obj file (generated by Autodesk ATF)

mtllib ddf16158-64bb-45f5-9e30-4ea68b6980d7.mtl

g Body2

v 32.125000 143.564065 -71.339746
v 32.125000 22.320508 -1.339746
v 32.125000 27.320508 7.320508
v 32.125000 148.564065 -62.679492
v 142.125000 143.564065 -71.339746
v 142.125000 148.564065 -62.679492
v 142.125000 22.320508 -1.339746
v 142.125000 27.320508 7.320508
vt -0.000000 0.000000 0.000000
vt 14.000000 -0.000000 0.000000
vt 0.000000 1.000000 0.000000
vt 14.000000 1.000000 0.000000
vt 0.000000 -0.000000 0.000000
vt 11.000000 -0.000000 0.000000
vt -0.000000 1.000000 0.000000
vt 11.000000 1.000000 0.000000
vt 0.000000 0.000000 0.000000
vt 14.000000 0.000000 0.000000
vt 0.000000 1.000000 0.000000
vt 14.000000 1.000000 0.000000
vt 0.000000 0.000000 0.000000
vt 11.000000 0.000000 0.000000
vt -0.000000 1.000000 0.000000
vt 11.000000 1.000000 0.000000
vt -5.500000 -7.000000 0.000000
vt 5.500000 -7.000000 0.000000
vt -5.500000 7.000000 0.000000
vt 5.500000 7.000000 0.000000
vt -5.500000 -7.000000 0.000000
vt 5.500000 -7.000000 0.000000
vt -5.500000 7.000000 0.000000
vt 5.500000 7.000000 0.000000
vn -0.100000 -0.000000 -0.000000
vn -0.100000 -0.000000 -0.000000
vn -0.100000 -0.000000 -0.000000
vn -0.100000 -0.000000 -0.000000
vn 0.000000 0.086603 -0.050000
vn 0.000000 0.086603 -0.050000
vn 0.000000 0.086603 -0.050000
vn 0.000000 0.086603 -0.050000
vn 0.100000 0.000000 0.000000
vn 0.100000 0.000000 0.000000
vn 0.100000 0.000000 0.000000
vn 0.100000 0.000000 0.000000
vn 0.000000 -0.086603 0.050000
vn 0.000000 -0.086603 0.050000
vn 0.000000 -0.086603 0.050000
vn 0.000000 -0.086603 0.050000
vn -0.000000 0.050000 0.086603
vn -0.000000 0.050000 0.086603
vn -0.000000 0.050000 0.086603
vn -0.000000 0.050000 0.086603
vn 0.000000 -0.050000 -0.086603
vn 0.000000 -0.050000 -0.086603
vn 0.000000 -0.050000 -0.086603
vn 0.000000 -0.050000 -0.086603
usemtl Steel_-_Satin
f 1/1/1 2/2/2 4/3/3
f 4/3/3 2/2/2 3/4/4
f 5/5/5 1/6/6 6/7/7
f 6/7/7 1/6/6 4/8/8
f 7/9/9 5/10/10 8/11/11
f 8/11/11 5/10/10 6/12/12
f 2/13/13 7/14/14 3/15/15
f 3/15/15 7/14/14 8/16/16
f 3/17/17 8/18/18 4/19/19
f 4/19/19 8/18/18 6/20/20
f 7/21/21 2/22/22 5/23/23
f 5/23/23 2/22/22 1/24/24
# 8 vertices
# 24 texture params
# 24 normals
# 12 facets

# 1 groups
