# WaveFront *.obj file (generated by Autodesk ATF)

mtllib 0cee3334-6e71-46b2-812a-3595054d0140.mtl

g Body1

v 310.000000 117.102443 -190.000000
v 310.000000 117.102443 -185.000000
v 310.000000 52.102443 -185.000000
v 310.000000 52.102443 -190.000000
v 205.000000 52.102443 -185.000000
v 205.000000 52.102443 -190.000000
v 5.000000 117.102443 -185.000000
v 5.000000 52.102443 -185.000000
v 100.000000 52.102443 -185.000000
v 100.000000 117.000000 -185.000000
v 105.000000 117.000000 -185.000000
v 105.000000 52.102443 -185.000000
v 200.000000 52.102443 -185.000000
v 200.000000 117.000000 -185.000000
v 205.000000 117.000000 -185.000000
v 100.000000 117.000000 0.000000
v 105.000000 117.000000 0.000000
v 100.000000 52.102443 -190.000000
v 100.000000 5.000000 -190.000000
v 100.000000 5.000000 0.000000
v 105.000000 5.000000 0.000000
v 105.000000 5.000000 -190.000000
v 105.000000 52.102443 -190.000000
v 5.000000 52.102443 -190.000000
v 200.000000 52.102443 -190.000000
v 5.000000 5.000000 -190.000000
v 5.000000 5.000000 0.000000
v 200.000000 117.000000 0.000000
v 205.000000 117.000000 0.000000
v 200.000000 5.000000 -190.000000
v 200.000000 5.000000 0.000000
v 205.000000 5.000000 0.000000
v 205.000000 5.000000 -190.000000
v 5.000000 117.102443 -190.000000
v 5.000000 190.000000 -190.000000
v 5.000000 190.000000 0.000000
v 0.000000 190.000000 -190.000000
v 0.000000 0.000000 -190.000000
v 0.000000 0.000000 0.000000
v 0.000000 190.000000 0.000000
v 310.000000 5.000000 0.000000
v 310.000000 5.000000 -190.000000
v 310.000000 0.000000 -190.000000
v 310.000000 0.000000 0.000000
vt -4.853751 11.710244 0.000000
vt -5.353751 11.710244 0.000000
vt -4.853751 5.210244 0.000000
vt -5.353751 5.210244 0.000000
vt 0.000000 1.500000 0.000000
vt 0.500000 1.500000 0.000000
vt 0.000000 12.000000 0.000000
vt 0.500000 12.000000 0.000000
vt 0.000000 12.000000 0.000000
vt 0.000000 1.500000 0.000000
vt 6.489756 12.000000 0.000000
vt 6.500000 1.500000 0.000000
vt 6.489756 12.500000 0.000000
vt 6.500000 32.000000 0.000000
vt 6.489756 22.000000 0.000000
vt 6.489756 22.500000 0.000000
vt 0.000000 32.000000 0.000000
vt 0.000000 22.500000 0.000000
vt 0.000000 22.000000 0.000000
vt 0.000000 12.500000 0.000000
vt -9.000000 -0.250000 0.000000
vt 9.500000 -0.250000 0.000000
vt -9.000000 0.250000 0.000000
vt 9.500000 0.250000 0.000000
vt 0.500000 11.200000 0.000000
vt 0.500000 4.710244 0.000000
vt 19.000000 11.200000 0.000000
vt 19.000000 0.000000 0.000000
vt 0.000000 0.000000 0.000000
vt 0.000000 4.710244 0.000000
vt 18.500000 11.200000 0.000000
vt 0.000000 11.200000 0.000000
vt 18.500000 4.710244 0.000000
vt 0.000000 0.000000 0.000000
vt 19.000000 0.000000 0.000000
vt 19.000000 4.710244 0.000000
vt 0.000000 22.500000 0.000000
vt 0.500000 22.500000 0.000000
vt 0.000000 32.000000 0.000000
vt 0.500000 32.000000 0.000000
vt 0.500000 22.000000 0.000000
vt 0.000000 22.000000 0.000000
vt 0.500000 12.500000 0.000000
vt 0.000000 12.500000 0.000000
vt 9.500000 -5.500000 0.000000
vt -9.500000 -5.500000 0.000000
vt 9.500000 -15.000000 0.000000
vt -9.500000 -15.000000 0.000000
vt -9.000000 -0.250000 0.000000
vt 9.500000 -0.250000 0.000000
vt -9.000000 0.250000 0.000000
vt 9.500000 0.250000 0.000000
vt 0.500000 11.200000 0.000000
vt 0.500000 4.710244 0.000000
vt 19.000000 11.200000 0.000000
vt 19.000000 0.000000 0.000000
vt 0.000000 0.000000 0.000000
vt 0.000000 4.710244 0.000000
vt 18.500000 11.200000 0.000000
vt 0.000000 11.200000 0.000000
vt 18.500000 4.710244 0.000000
vt 0.000000 0.000000 0.000000
vt 19.000000 0.000000 0.000000
vt 19.000000 4.710244 0.000000
vt -9.500000 -5.000000 0.000000
vt 9.500000 -5.000000 0.000000
vt -9.500000 4.500000 0.000000
vt 9.500000 4.500000 0.000000
vt 0.000000 1.500000 0.000000
vt 0.500000 1.500000 0.000000
vt 0.000000 32.000000 0.000000
vt 0.500000 32.000000 0.000000
vt 19.000000 4.710244 0.000000
vt 18.500000 4.710244 0.000000
vt 19.000000 0.000000 0.000000
vt -0.000000 0.000000 0.000000
vt 18.500000 11.210244 0.000000
vt -0.000000 18.500000 0.000000
vt 19.000000 18.500000 0.000000
vt 19.000000 11.210244 0.000000
vt 0.000000 0.000000 0.000000
vt 19.000000 0.000000 0.000000
vt 0.000000 19.000000 0.000000
vt 19.000000 19.000000 0.000000
vt 9.500000 0.250000 0.000000
vt -9.500000 0.250000 0.000000
vt 9.500000 -0.250000 0.000000
vt -9.500000 -0.250000 0.000000
vt -9.500000 5.000000 0.000000
vt 9.500000 5.000000 0.000000
vt -9.500000 15.500000 0.000000
vt 9.500000 15.500000 0.000000
vt 0.000000 5.210244 0.000000
vt 10.500000 5.210244 0.000000
vt 0.000000 11.710244 0.000000
vt 11.000000 5.210244 0.000000
vt 30.500000 11.710244 0.000000
vt 20.500000 5.210244 0.000000
vt 21.000000 5.210244 0.000000
vt 21.000000 0.500000 0.000000
vt 20.500000 0.500000 0.000000
vt 31.000000 0.000000 0.000000
vt 11.000000 0.500000 0.000000
vt 0.000000 0.000000 0.000000
vt 10.500000 0.500000 0.000000
vt 0.000000 0.500000 0.000000
vt 31.000000 19.000000 0.000000
vt 30.500000 5.210244 0.000000
vt 30.500000 0.500000 0.000000
vt 30.500000 19.000000 0.000000
vt 0.000000 0.000000 0.000000
vt 19.000000 0.000000 0.000000
vt 0.000000 0.500000 0.000000
vt 19.000000 0.500000 0.000000
vt 31.000000 0.000000 0.000000
vt 20.000000 0.500000 0.000000
vt 0.000000 0.000000 0.000000
vt 10.500000 0.500000 0.000000
vt 10.000000 0.500000 0.000000
vt 10.000000 11.700000 0.000000
vt 10.500000 11.700000 0.000000
vt 31.000000 0.500000 0.000000
vt 20.500000 0.500000 0.000000
vt 20.500000 11.700000 0.000000
vt 20.000000 11.700000 0.000000
vt 0.500000 0.500000 0.000000
vt 0.000000 19.000000 0.000000
vt 0.500000 19.000000 0.000000
vt 15.500000 9.500000 0.000000
vt -15.500000 9.500000 0.000000
vt 15.500000 -9.500000 0.000000
vt -15.500000 -9.500000 0.000000
vn 0.100000 0.000000 0.000000
vn 0.100000 0.000000 0.000000
vn 0.100000 0.000000 0.000000
vn 0.100000 0.000000 0.000000
vn 0.000000 -0.100000 0.000000
vn 0.000000 -0.100000 0.000000
vn 0.000000 -0.100000 0.000000
vn 0.000000 -0.100000 0.000000
vn 0.000000 0.000000 0.100000
vn 0.000000 0.000000 0.100000
vn 0.000000 0.000000 0.100000
vn 0.000000 0.000000 0.100000
vn 0.000000 0.000000 0.100000
vn 0.000000 0.000000 0.100000
vn 0.000000 0.000000 0.100000
vn 0.000000 0.000000 0.100000
vn 0.000000 0.000000 0.100000
vn 0.000000 0.000000 0.100000
vn 0.000000 0.000000 0.100000
vn 0.000000 0.000000 0.100000
vn 0.000000 0.100000 0.000000
vn 0.000000 0.100000 0.000000
vn 0.000000 0.100000 0.000000
vn 0.000000 0.100000 0.000000
vn -0.100000 0.000000 0.000000
vn -0.100000 0.000000 0.000000
vn -0.100000 0.000000 0.000000
vn -0.100000 0.000000 0.000000
vn -0.100000 0.000000 0.000000
vn -0.100000 0.000000 0.000000
vn 0.100000 -0.000000 0.000000
vn 0.100000 -0.000000 0.000000
vn 0.100000 -0.000000 0.000000
vn 0.100000 -0.000000 0.000000
vn 0.100000 -0.000000 0.000000
vn 0.100000 -0.000000 0.000000
vn 0.000000 -0.100000 0.000000
vn 0.000000 -0.100000 0.000000
vn 0.000000 -0.100000 0.000000
vn 0.000000 -0.100000 0.000000
vn 0.000000 -0.100000 0.000000
vn 0.000000 -0.100000 0.000000
vn 0.000000 -0.100000 0.000000
vn 0.000000 -0.100000 0.000000
vn 0.000000 0.100000 0.000000
vn 0.000000 0.100000 0.000000
vn 0.000000 0.100000 0.000000
vn 0.000000 0.100000 0.000000
vn 0.000000 0.100000 0.000000
vn 0.000000 0.100000 0.000000
vn 0.000000 0.100000 0.000000
vn 0.000000 0.100000 0.000000
vn -0.100000 0.000000 0.000000
vn -0.100000 0.000000 0.000000
vn -0.100000 0.000000 0.000000
vn -0.100000 0.000000 0.000000
vn -0.100000 0.000000 0.000000
vn -0.100000 0.000000 0.000000
vn 0.100000 -0.000000 0.000000
vn 0.100000 -0.000000 0.000000
vn 0.100000 -0.000000 0.000000
vn 0.100000 -0.000000 0.000000
vn 0.100000 -0.000000 0.000000
vn 0.100000 -0.000000 0.000000
vn 0.000000 0.100000 0.000000
vn 0.000000 0.100000 0.000000
vn 0.000000 0.100000 0.000000
vn 0.000000 0.100000 0.000000
vn 0.000000 0.100000 0.000000
vn 0.000000 0.100000 0.000000
vn 0.000000 0.100000 0.000000
vn 0.000000 0.100000 0.000000
vn 0.100000 0.000000 0.000000
vn 0.100000 0.000000 0.000000
vn 0.100000 0.000000 0.000000
vn 0.100000 0.000000 0.000000
vn 0.100000 0.000000 0.000000
vn 0.100000 0.000000 0.000000
vn 0.100000 0.000000 0.000000
vn 0.100000 0.000000 0.000000
vn -0.100000 0.000000 0.000000
vn -0.100000 0.000000 0.000000
vn -0.100000 0.000000 0.000000
vn -0.100000 0.000000 0.000000
vn 0.000000 0.100000 0.000000
vn 0.000000 0.100000 0.000000
vn 0.000000 0.100000 0.000000
vn 0.000000 0.100000 0.000000
vn 0.000000 0.100000 0.000000
vn 0.000000 0.100000 0.000000
vn 0.000000 0.100000 0.000000
vn 0.000000 0.100000 0.000000
vn 0.000000 0.000000 -0.100000
vn 0.000000 0.000000 -0.100000
vn 0.000000 0.000000 -0.100000
vn 0.000000 0.000000 -0.100000
vn 0.000000 0.000000 -0.100000
vn 0.000000 0.000000 -0.100000
vn 0.000000 0.000000 -0.100000
vn 0.000000 0.000000 -0.100000
vn 0.000000 0.000000 -0.100000
vn 0.000000 0.000000 -0.100000
vn 0.000000 0.000000 -0.100000
vn 0.000000 0.000000 -0.100000
vn 0.000000 0.000000 -0.100000
vn 0.000000 0.000000 -0.100000
vn 0.000000 0.000000 -0.100000
vn 0.000000 0.000000 -0.100000
vn 0.000000 0.000000 -0.100000
vn 0.000000 0.000000 -0.100000
vn 0.100000 -0.000000 0.000000
vn 0.100000 -0.000000 0.000000
vn 0.100000 -0.000000 0.000000
vn 0.100000 -0.000000 0.000000
vn 0.000000 0.000000 0.100000
vn 0.000000 0.000000 0.100000
vn 0.000000 0.000000 0.100000
vn 0.000000 0.000000 0.100000
vn 0.000000 0.000000 0.100000
vn 0.000000 0.000000 0.100000
vn 0.000000 0.000000 0.100000
vn 0.000000 0.000000 0.100000
vn 0.000000 0.000000 0.100000
vn 0.000000 0.000000 0.100000
vn 0.000000 0.000000 0.100000
vn 0.000000 0.000000 0.100000
vn 0.000000 0.000000 0.100000
vn 0.000000 0.000000 0.100000
vn 0.000000 -0.100000 0.000000
vn 0.000000 -0.100000 0.000000
vn 0.000000 -0.100000 0.000000
vn 0.000000 -0.100000 0.000000
usemtl Steel_-_Satin
f 1/1/1 2/2/2 4/3/3
f 4/3/3 2/2/2 3/4/4
f 4/5/5 3/6/6 6/7/7
f 6/7/7 3/6/6 5/8/8
f 5/9/9 3/10/10 15/11/11
f 15/11/11 3/10/10 2/12/12
f 15/11/11 2/12/12 14/13/13
f 14/13/13 2/12/12 7/14/14
f 14/13/13 7/14/14 11/15/15
f 11/15/15 7/14/14 10/16/16
f 10/16/16 7/14/14 8/17/17
f 10/16/16 8/17/17 9/18/18
f 11/15/15 12/19/19 14/13/13
f 14/13/13 12/19/19 13/20/20
f 10/21/21 16/22/22 11/23/23
f 11/23/23 16/22/22 17/24/24
f 10/25/25 9/26/26 16/27/27
f 16/27/27 9/26/26 20/28/28
f 20/28/28 9/26/26 19/29/29
f 19/29/29 9/26/26 18/30/30
f 11/31/31 17/32/32 12/33/33
f 12/33/33 17/32/32 21/34/34
f 12/33/33 21/34/34 22/35/35
f 22/35/35 23/36/36 12/33/33
f 18/37/37 9/38/38 24/39/39
f 24/39/39 9/38/38 8/40/40
f 12/41/41 23/42/42 13/43/43
f 13/43/43 23/42/42 25/44/44
f 20/45/45 19/46/46 27/47/47
f 27/47/47 19/46/46 26/48/48
f 14/49/49 28/50/50 15/51/51
f 15/51/51 28/50/50 29/52/52
f 14/53/53 13/54/54 28/55/55
f 28/55/55 13/54/54 31/56/56
f 31/56/56 13/54/54 30/57/57
f 30/57/57 13/54/54 25/58/58
f 15/59/59 29/60/60 5/61/61
f 5/61/61 29/60/60 32/62/62
f 5/61/61 32/62/62 33/63/63
f 33/63/63 6/64/64 5/61/61
f 22/65/65 21/66/66 30/67/67
f 30/67/67 21/66/66 31/68/68
f 2/69/69 1/70/70 7/71/71
f 7/71/71 1/70/70 34/72/72
f 24/73/73 8/74/74 26/75/75
f 26/75/75 8/74/74 27/76/76
f 27/76/76 8/74/74 7/77/77
f 27/76/76 7/77/77 36/78/78
f 36/78/78 7/77/77 35/79/79
f 35/79/79 7/77/77 34/80/80
f 38/81/81 39/82/82 37/83/83
f 37/83/83 39/82/82 40/84/84
f 36/85/85 35/86/86 40/87/87
f 40/87/87 35/86/86 37/88/88
f 33/89/89 32/90/90 42/91/91
f 42/91/91 32/90/90 41/92/92
f 4/93/93 6/94/94 1/95/95
f 1/95/95 6/94/94 25/96/96
f 1/95/95 25/96/96 34/97/97
f 34/97/97 25/96/96 23/98/98
f 34/97/97 23/98/98 18/99/99
f 18/99/99 23/98/98 19/100/100
f 19/100/100 23/98/98 22/101/101
f 19/100/100 22/101/101 38/102/102
f 38/102/102 22/101/101 30/103/103
f 38/102/102 30/103/103 43/104/104
f 43/104/104 30/103/103 33/105/105
f 43/104/104 33/105/105 42/106/106
f 25/96/96 6/94/94 30/103/103
f 30/103/103 6/94/94 33/105/105
f 37/107/107 34/97/97 38/102/102
f 38/102/102 34/97/97 24/108/108
f 38/102/102 24/108/108 26/109/109
f 37/107/107 35/110/110 34/97/97
f 18/99/99 24/108/108 34/97/97
f 26/109/109 19/100/100 38/102/102
f 44/111/111 43/112/112 41/113/113
f 41/113/113 43/112/112 42/114/114
f 44/115/115 31/116/116 39/117/117
f 39/117/117 31/116/116 21/118/118
f 39/117/117 21/118/118 20/119/119
f 20/119/119 21/118/118 16/120/120
f 16/120/120 21/118/118 17/121/121
f 41/122/122 32/123/123 44/115/115
f 44/115/115 32/123/123 31/116/116
f 29/124/124 28/125/125 32/123/123
f 32/123/123 28/125/125 31/116/116
f 20/119/119 27/126/126 39/117/117
f 39/117/117 27/126/126 40/127/127
f 40/127/127 27/126/126 36/128/128
f 38/129/129 43/130/130 39/131/131
f 39/131/131 43/130/130 44/132/132
g Body2

v 305.000000 5.000000 0.000000
v 310.000000 5.000000 0.000000
v 310.000000 190.000000 0.000000
v 305.000000 190.000000 0.000000
v 305.000000 5.000000 -190.000000
v 305.000000 190.000000 -190.000000
v 310.000000 5.000000 -190.000000
v 310.000000 190.000000 -190.000000
vt 0.000000 0.000000 0.000000
vt 0.500000 0.000000 0.000000
vt 0.000000 18.500000 0.000000
vt 0.500000 18.500000 0.000000
vt 0.000000 0.000000 0.000000
vt 19.000000 0.000000 0.000000
vt 0.000000 18.500000 0.000000
vt 19.000000 18.500000 0.000000
vt 0.000000 0.000000 0.000000
vt 0.500000 0.000000 0.000000
vt 0.000000 18.500000 0.000000
vt 0.500000 18.500000 0.000000
vt 0.000000 0.000000 0.000000
vt 19.000000 0.000000 0.000000
vt 0.000000 18.500000 0.000000
vt 19.000000 18.500000 0.000000
vt 9.500000 0.250000 0.000000
vt -9.500000 0.250000 0.000000
vt 9.500000 -0.250000 0.000000
vt -9.500000 -0.250000 0.000000
vt 0.250000 9.500000 0.000000
vt -0.250000 9.500000 0.000000
vt 0.250000 -9.500000 0.000000
vt -0.250000 -9.500000 0.000000
vn 0.000000 0.000000 0.100000
vn 0.000000 0.000000 0.100000
vn 0.000000 0.000000 0.100000
vn 0.000000 0.000000 0.100000
vn -0.100000 0.000000 0.000000
vn -0.100000 0.000000 0.000000
vn -0.100000 0.000000 0.000000
vn -0.100000 0.000000 0.000000
vn 0.000000 0.000000 -0.100000
vn 0.000000 0.000000 -0.100000
vn 0.000000 0.000000 -0.100000
vn 0.000000 0.000000 -0.100000
vn 0.100000 0.000000 0.000000
vn 0.100000 0.000000 0.000000
vn 0.100000 0.000000 0.000000
vn 0.100000 0.000000 0.000000
vn 0.000000 0.100000 0.000000
vn 0.000000 0.100000 0.000000
vn 0.000000 0.100000 0.000000
vn 0.000000 0.100000 0.000000
vn 0.000000 -0.100000 0.000000
vn 0.000000 -0.100000 0.000000
vn 0.000000 -0.100000 0.000000
vn 0.000000 -0.100000 0.000000
f 45/133/133 46/134/134 48/135/135
f 48/135/135 46/134/134 47/136/136
f 49/137/137 45/138/138 50/139/139
f 50/139/139 45/138/138 48/140/140
f 51/141/141 49/142/142 52/143/143
f 52/143/143 49/142/142 50/144/144
f 46/145/145 51/146/146 47/147/147
f 47/147/147 51/146/146 52/148/148
f 47/149/149 52/150/150 48/151/151
f 48/151/151 52/150/150 50/152/152
f 46/153/153 45/154/154 51/155/155
f 51/155/155 45/154/154 49/156/156
# 52 vertices
# 156 texture params
# 156 normals
# 104 facets

# 2 groups
