# WaveFront *.obj file (generated by Autodesk ATF)

mtllib acfbc3b9-2042-43e2-9573-df2cd31a0aa8.mtl

g Body2

v -150.000000 0.000000 150.000000
v -150.000000 0.000000 -150.000000
v -150.000000 250.000000 -150.000000
v -150.000000 250.000000 150.000000
v -175.000000 0.000000 150.000000
v -175.000000 250.000000 150.000000
v -175.000000 0.000000 -175.000000
v -175.000000 250.000000 -175.000000
v 150.000000 0.000000 -175.000000
v 150.000000 250.000000 -175.000000
v 150.000000 0.000000 -150.000000
v 150.000000 250.000000 -150.000000
vt 0.000000 0.000000 0.000000
vt 30.000000 0.000000 0.000000
vt 0.000000 25.000000 0.000000
vt 30.000000 25.000000 0.000000
vt 0.000000 0.000000 0.000000
vt 2.500000 0.000000 0.000000
vt 0.000000 25.000000 0.000000
vt 2.500000 25.000000 0.000000
vt 0.000000 0.000000 0.000000
vt 32.500000 0.000000 0.000000
vt 0.000000 25.000000 0.000000
vt 32.500000 25.000000 0.000000
vt 0.000000 0.000000 0.000000
vt 32.500000 0.000000 0.000000
vt 0.000000 25.000000 0.000000
vt 32.500000 25.000000 0.000000
vt 0.000000 0.000000 0.000000
vt 2.500000 0.000000 0.000000
vt 0.000000 25.000000 0.000000
vt 2.500000 25.000000 0.000000
vt 0.000000 0.000000 0.000000
vt 30.000000 0.000000 0.000000
vt 0.000000 25.000000 0.000000
vt 30.000000 25.000000 0.000000
vt -13.750000 16.250000 0.000000
vt -16.250000 16.250000 0.000000
vt -13.750000 -13.750000 0.000000
vt -16.250000 -16.250000 0.000000
vt 16.250000 -16.250000 0.000000
vt 16.250000 -13.750000 0.000000
vt -16.250000 13.750000 0.000000
vt 13.750000 13.750000 0.000000
vt -16.250000 16.250000 0.000000
vt 16.250000 16.250000 0.000000
vt 16.250000 -16.250000 0.000000
vt 13.750000 -16.250000 0.000000
vn 0.100000 -0.000000 0.000000
vn 0.100000 -0.000000 0.000000
vn 0.100000 -0.000000 0.000000
vn 0.100000 -0.000000 0.000000
vn 0.000000 -0.000000 0.100000
vn 0.000000 -0.000000 0.100000
vn 0.000000 -0.000000 0.100000
vn 0.000000 -0.000000 0.100000
vn -0.100000 0.000000 0.000000
vn -0.100000 0.000000 0.000000
vn -0.100000 0.000000 0.000000
vn -0.100000 0.000000 0.000000
vn 0.000000 0.000000 -0.100000
vn 0.000000 0.000000 -0.100000
vn 0.000000 0.000000 -0.100000
vn 0.000000 0.000000 -0.100000
vn 0.100000 -0.000000 0.000000
vn 0.100000 -0.000000 0.000000
vn 0.100000 -0.000000 0.000000
vn 0.100000 -0.000000 0.000000
vn 0.000000 0.000000 0.100000
vn 0.000000 0.000000 0.100000
vn 0.000000 0.000000 0.100000
vn 0.000000 0.000000 0.100000
vn 0.000000 0.100000 0.000000
vn 0.000000 0.100000 0.000000
vn 0.000000 0.100000 0.000000
vn 0.000000 0.100000 0.000000
vn 0.000000 0.100000 0.000000
vn 0.000000 0.100000 0.000000
vn 0.000000 -0.100000 0.000000
vn 0.000000 -0.100000 0.000000
vn 0.000000 -0.100000 0.000000
vn 0.000000 -0.100000 0.000000
vn 0.000000 -0.100000 0.000000
vn 0.000000 -0.100000 0.000000
usemtl Powder_Coat_(White)
f 1/1/1 2/2/2 4/3/3
f 4/3/3 2/2/2 3/4/4
f 5/5/5 1/6/6 6/7/7
f 6/7/7 1/6/6 4/8/8
f 7/9/9 5/10/10 8/11/11
f 8/11/11 5/10/10 6/12/12
f 9/13/13 7/14/14 10/15/15
f 10/15/15 7/14/14 8/16/16
f 11/17/17 9/18/18 12/19/19
f 12/19/19 9/18/18 10/20/20
f 2/21/21 11/22/22 3/23/23
f 3/23/23 11/22/22 12/24/24
f 12/25/25 10/26/26 3/27/27
f 3/27/27 10/26/26 8/28/28
f 3/27/27 8/28/28 6/29/29
f 6/29/29 4/30/30 3/27/27
f 11/31/31 2/32/32 9/33/33
f 9/33/33 2/32/32 7/34/34
f 7/34/34 2/32/32 5/35/35
f 5/35/35 2/32/32 1/36/36
# 12 vertices
# 36 texture params
# 36 normals
# 20 facets

# 1 groups
